<?xml version="1.0" standalone="no"?>
<!DOCTYPE svg PUBLIC "-//W3C//DTD SVG 20010904//EN"
 "http://www.w3.org/TR/2001/REC-SVG-20010904/DTD/svg10.dtd">
<svg version="1.0" xmlns="http://www.w3.org/2000/svg"
 width="600.000000pt" height="600.000000pt" viewBox="0 0 600.000000 600.000000"
 preserveAspectRatio="xMidYMid meet">
<metadata>
Created by potrace 1.11, written by Peter Selinger 2001-2013
</metadata>
<g transform="translate(0.000000,600.000000) scale(0.100000,-0.100000)"
fill="#000000" stroke="none">
<path d="M0 3000 l0 -3000 3000 0 3000 0 0 3000 0 3000 -3000 0 -3000 0 0
-3000z m665 1320 c3 -5 6 -208 5 -451 0 -317 3 -445 11 -455 15 -18 93 -18
108 -1 7 10 12 152 13 463 l3 449 70 -3 c90 -4 257 -46 323 -81 133 -71 214
-130 292 -210 50 -52 160 -200 160 -216 0 -3 13 -34 29 -68 16 -34 32 -78 36
-97 4 -19 17 -53 28 -75 18 -35 21 -38 28 -20 4 11 8 185 8 387 1 225 5 369
11 373 24 15 179 6 259 -15 332 -85 574 -345 646 -692 3 -16 12 -28 20 -28 13
0 24 28 40 105 15 73 95 240 141 295 166 198 347 304 581 339 99 15 158 14
172 -3 9 -11 12 -118 10 -403 -1 -333 1 -388 13 -391 9 -2 185 169 405 393
214 217 393 395 397 395 5 0 7 -176 5 -392 -4 -407 0 -446 35 -358 9 22 16 48
16 58 1 55 82 222 154 319 92 123 211 223 341 287 64 31 96 43 195 74 56 18
189 34 221 27 27 -6 29 -10 29 -55 0 -56 1 -55 -105 -65 -76 -7 -163 -28 -208
-51 -16 -8 -33 -14 -39 -14 -21 0 -175 -100 -231 -151 -120 -107 -215 -265
-256 -423 -16 -62 -21 -109 -20 -210 0 -187 14 -250 82 -385 109 -217 271
-359 502 -440 46 -16 231 -51 270 -51 3 0 5 -22 5 -50 0 -45 -2 -50 -26 -56
-34 -9 -203 19 -286 46 -155 53 -276 129 -394 252 -131 135 -216 288 -239 430
-9 53 -23 80 -38 75 -9 -3 -11 -99 -8 -390 2 -297 0 -391 -9 -402 -14 -17 -95
-21 -105 -5 -3 5 -6 372 -6 815 1 673 -1 805 -13 805 -9 0 -541 -524 -684
-675 -2 -2 -3 -212 -3 -467 1 -254 -3 -469 -7 -476 -7 -10 -151 -12 -688 -10
l-679 3 -3 49 c-2 32 1 52 10 57 7 5 104 9 215 9 117 0 204 4 208 10 8 14 9
749 1 758 -12 11 -45 -36 -52 -76 -4 -20 -23 -73 -44 -117 -117 -254 -363
-439 -645 -487 -85 -14 -88 -19 -83 -105 6 -92 -2 -105 -62 -101 l-45 3 -5
387 c-3 212 -8 389 -12 393 -9 9 -44 -61 -52 -105 -4 -19 -11 -44 -16 -55 -5
-11 -19 -42 -31 -70 -57 -131 -202 -300 -334 -390 -60 -42 -165 -93 -245 -119
-60 -20 -224 -48 -258 -44 l-27 3 -5 450 -5 450 -60 0 -60 0 -5 -450 -5 -450
-41 -5 c-23 -3 -46 -4 -53 -2 -8 3 -11 255 -11 976 0 535 3 976 7 979 10 11
91 8 98 -3z m4770 -2145 l0 -40 -2430 0 -2430 0 -3 43 -3 42 2433 -2 2433 -3
0 -40z m-2085 -263 c-38 -46 -38 -66 0 -109 17 -18 30 -43 30 -54 0 -29 -22
-18 -31 15 -11 39 -38 66 -65 66 -30 0 -43 -26 -36 -69 3 -24 1 -32 -8 -29
-18 6 -21 218 -3 218 9 0 13 -13 11 -42 -3 -42 -2 -43 27 -43 23 0 33 6 44 30
18 40 42 66 52 59 5 -3 -4 -22 -21 -42z m-2682 28 c-27 -16 -58 -75 -58 -110
0 -23 9 -41 35 -67 40 -40 42 -45 18 -36 -55 19 -87 96 -64 155 12 32 49 68
70 68 14 -1 14 -2 -1 -10z m97 -6 c30 -20 49 -75 41 -119 -8 -43 -42 -85 -68
-85 -19 0 -19 2 7 28 55 55 56 104 2 160 -33 34 -23 43 18 16z m155 -77 c0
-99 7 -117 47 -117 13 0 23 -4 23 -8 0 -5 -19 -6 -42 -3 l-43 6 -3 108 c-2 69
1 107 8 107 6 0 10 -36 10 -93z m151 -1 c-2 -61 2 -92 13 -114 9 -17 16 -41
15 -54 0 -20 -2 -19 -16 10 -13 25 -23 32 -47 33 -17 1 -24 3 -14 6 24 6 31
29 34 123 3 101 2 95 11 86 4 -4 6 -44 4 -90z m156 76 c-21 -24 -22 -68 -1
-76 9 -3 29 -6 45 -6 16 0 29 -5 29 -11 0 -7 -11 -8 -30 -4 -38 8 -60 -8 -60
-44 0 -30 9 -45 30 -54 8 -4 -1 -5 -20 -4 l-35 2 0 95 c-1 116 1 120 33 120
24 0 24 -1 9 -18z m206 -8 c-7 -54 34 -90 89 -77 38 9 48 23 48 64 0 22 5 39
10 39 6 0 10 -43 10 -110 0 -62 -4 -110 -9 -110 -6 0 -11 21 -13 48 l-3 47
-53 3 c-64 4 -84 -9 -80 -52 2 -17 -1 -32 -6 -34 -4 -1 -9 45 -11 103 -2 76 1
105 9 102 6 -2 10 -13 9 -23z m311 -8 c-53 -53 -45 -120 21 -179 20 -18 20
-18 -5 -11 -45 12 -70 51 -70 111 0 47 4 59 29 84 16 16 36 29 44 29 9 0 2
-13 -19 -34z m127 8 c20 -21 24 -36 24 -86 0 -55 -3 -62 -33 -89 -18 -16 -42
-29 -55 -29 -19 0 -18 2 10 20 34 21 63 66 63 100 0 29 -26 76 -52 94 -22 16
-22 16 -2 16 11 0 31 -12 45 -26z m141 -11 c-2 -21 5 -39 23 -62 25 -29 26
-31 6 -31 -11 0 -27 10 -35 22 -20 28 -22 112 -3 105 7 -2 11 -16 9 -34z m141
-74 c-1 -64 -5 -105 -12 -107 -7 -2 -11 12 -11 37 0 22 -5 43 -10 46 -7 4 -6
13 1 27 6 12 9 38 6 59 -5 39 -1 52 17 46 7 -2 10 -42 9 -108z m134 66 c0 -23
8 -44 18 -51 15 -11 15 -14 -5 -34 -16 -16 -20 -28 -15 -50 4 -17 2 -31 -5
-35 -21 -13 -29 9 -20 58 6 27 6 67 1 94 -10 51 -6 66 12 60 7 -2 13 -21 14
-42z m153 -66 c0 -84 -3 -110 -12 -106 -8 2 -12 17 -10 36 4 42 -13 61 -56 61
-40 0 -36 12 6 17 35 5 55 31 48 64 -5 27 0 39 16 39 4 0 8 -50 8 -111z m223
69 c9 -24 19 -56 22 -73 4 -16 14 -44 23 -62 9 -18 13 -35 9 -39 -9 -9 -37 15
-37 32 0 7 -8 17 -17 23 -14 8 -15 12 -4 25 22 26 5 85 -27 98 -36 16 -35 15
-27 27 15 25 43 10 58 -31z m194 24 c-10 -10 -17 -31 -17 -47 0 -23 -2 -26
-15 -15 -20 17 -19 30 7 57 25 27 49 32 25 5z m103 -93 c0 -76 -3 -108 -11
-103 -6 3 -8 17 -5 30 4 14 1 34 -5 45 -8 15 -8 28 1 49 10 24 9 35 -3 59 -15
29 -14 31 4 31 18 0 19 -8 19 -111z m578 101 c-25 -15 -58 -74 -58 -103 0 -14
15 -46 34 -70 26 -34 30 -43 16 -40 -48 13 -81 88 -66 148 8 31 52 75 75 75
14 -1 14 -2 -1 -10z m93 -3 c27 -20 39 -53 39 -105 0 -51 -15 -78 -57 -100
-38 -21 -38 -13 0 22 33 30 37 39 37 82 0 41 -5 53 -32 81 -31 32 -22 47 13
20z m192 6 c2 -5 7 -19 10 -33 5 -22 3 -25 -23 -25 -22 0 -30 6 -35 23 -3 13
-3 27 0 32 7 12 42 13 48 3z m177 -12 c0 -38 -10 -51 -31 -40 -19 9 -26 39
-12 52 14 15 43 7 43 -12z m154 -6 c-24 -24 -25 -30 -21 -110 4 -68 2 -85 -9
-85 -11 0 -14 22 -14 103 0 57 3 107 7 110 3 4 19 7 34 7 l28 0 -25 -25z m134
-87 c2 -92 0 -108 -13 -108 -12 0 -15 16 -15 91 0 50 -5 99 -11 110 -9 18 -8
20 13 17 22 -3 23 -7 26 -110z m234 42 c11 -36 26 -80 34 -98 18 -41 18 -52 0
-52 -8 0 -19 14 -25 30 -7 23 -16 30 -35 30 -15 0 -26 5 -26 10 0 6 9 10 19
10 26 0 31 18 17 60 -10 29 -16 35 -39 33 -28 -2 -31 4 -21 32 4 10 16 15 31
13 21 -3 28 -13 45 -68z m170 50 c-8 -34 11 -72 41 -86 31 -13 31 -13 7 -14
-36 0 -50 -18 -50 -63 0 -26 -4 -37 -12 -35 -8 3 -12 38 -13 112 -1 92 1 106
14 103 9 -2 15 -9 13 -17z m155 -90 c0 -77 -3 -110 -11 -107 -6 2 -11 21 -11
43 0 31 -5 41 -22 49 -13 5 -23 12 -23 15 0 3 10 10 23 15 16 8 22 19 23 45 1
45 2 50 13 50 4 0 8 -50 8 -110z m122 53 l-1 -58 -9 49 c-7 45 -5 66 7 66 2 0
3 -26 3 -57z m159 25 c-2 -27 -8 -34 -30 -36 -17 -2 -30 -11 -33 -23 -4 -11
-9 -19 -11 -16 -3 2 7 27 21 56 30 59 58 69 53 19z m143 6 c-12 -15 -21 -33
-21 -41 0 -8 -4 -11 -10 -8 -16 10 -11 33 12 55 31 29 43 25 19 -6z m110 19
c0 -5 2 -54 3 -110 2 -81 0 -103 -11 -103 -9 0 -13 14 -13 44 0 25 -5 48 -11
52 -8 4 -8 9 0 17 14 14 14 62 1 88 -9 16 -7 19 10 19 11 0 20 -3 21 -7z
m-2796 -155 c-7 -4 -16 -19 -19 -33 -4 -14 -13 -25 -21 -25 -18 0 -18 1 -1 42
8 18 20 53 28 78 l13 45 6 -50 c4 -34 2 -52 -6 -57z m1426 3 c2 -36 -1 -56 -9
-59 -9 -3 -12 17 -12 70 1 84 17 76 21 -11z m-235 -59 c-12 -12 -14 6 -8 68
l7 65 3 -64 c2 -35 1 -66 -2 -69z m672 71 c16 -11 16 -12 -1 -13 -11 0 -22
-12 -28 -30 -11 -30 -23 -38 -33 -21 -3 4 1 17 9 27 8 10 15 29 15 41 0 12 3
30 7 40 7 16 8 15 11 -7 2 -13 11 -30 20 -37z m682 -66 c-14 -16 -18 7 -12 68
l6 60 7 -60 c3 -33 3 -64 -1 -68z m180 92 c0 -5 -5 -9 -10 -9 -6 0 -19 -20
-30 -45 -11 -25 -24 -45 -30 -45 -16 0 -12 25 10 53 11 14 20 34 20 45 0 15 5
19 20 15 11 -3 20 -9 20 -14z m-2428 5 c3 -3 -5 -17 -18 -31 -13 -14 -24 -34
-24 -45 0 -17 -25 -36 -34 -27 -6 6 55 109 63 109 4 0 10 -3 13 -6z m2151 -29
c-3 -9 -8 -14 -10 -11 -3 3 -2 9 2 15 9 16 15 13 8 -4z m-1133 -40 c0 -24 -5
-35 -14 -35 -21 0 -28 15 -20 45 10 39 34 32 34 -10z m1110 6 c0 -23 -14 -41
-31 -41 -14 0 -19 7 -19 25 0 20 5 25 25 25 14 0 25 -4 25 -9z m-3700 -41 c0
-5 -6 -10 -14 -10 -8 0 -18 5 -21 10 -3 6 3 10 14 10 12 0 21 -4 21 -10z"/>
<path d="M927 4193 c-12 -12 -8 -1678 4 -1690 7 -7 20 -8 37 -2 15 4 52 15 82
24 171 51 368 202 468 360 68 107 103 204 127 356 16 99 16 112 1 215 -19 121
-33 168 -79 264 -108 224 -294 383 -537 459 -69 22 -93 25 -103 14z"/>
<path d="M1902 4188 c-18 -18 -17 -1471 1 -1486 25 -21 145 7 256 61 135 65
243 165 328 302 109 174 133 425 61 634 -39 115 -146 265 -248 346 -56 46
-150 95 -235 124 -96 33 -144 38 -163 19z"/>
<path d="M3395 4183 c-140 -44 -240 -105 -334 -202 -55 -58 -151 -188 -151
-206 0 -4 -6 -21 -14 -38 -51 -114 -51 -116 -51 -697 l0 -545 342 -3 343 -2 5
22 c3 13 4 397 3 853 l-3 830 -45 2 c-25 1 -67 -6 -95 -14z"/>
</g>
</svg>
